#!OML:ASF E:\motion texture\Top Level 1\Subject 1\Session 1\male.ASF
:FULLY-SPECIFIED
:DEGREES
340
root -15.0924 17.5798 3.62448 711.989 -87.4888 -708.466
lowerback 1.77778 -3.98158 -3.60146
upperback -2.32557 -5.39276 2.51426
thorax -2.82059 -2.59536 4.8131
lowerneck -18.522 -2.75429 -4.61023
upperneck 13.7993 -3.6423 6.0661
head 7.48161 -1.41928 2.32215
rclavicle 1.15456e-014 3.97569e-016
rhumerus -45.0084 2.63518 -81.6597
rradius 65.1154
rwrist -0.684481
rhand -12.6575 -7.23213
rfingers 7.12502
rthumb 13.4233 -36.7796
lclavicle 1.15456e-014 3.97569e-016
lhumerus -27.2255 -16.5796 98.2152
lradius 64.5868
lwrist -3.60778
lhand -11.6717 3.41649
lfingers 7.12502
lthumb 14.3734 32.8989
rfemur -52.8301 -9.57356 21.8076
rtibia 54.1423
rfoot 742.939 -7.65062
rtoes 18.6528
lfemur 9.66827 -5.26144 -24.0496
ltibia 18.1091
lfoot 342.187 -6.12635
ltoes -4.41995
341
root -15.2862 17.5596 3.59379 717.012 -87.3722 -713.335
lowerback 1.29613 -3.87321 -3.47942
upperback -2.38715 -5.23246 2.5659
thorax -2.63629 -2.52303 4.75897
lowerneck -18.4114 -2.85219 -4.70065
upperneck 13.8242 -3.75199 6.03787
head 7.47824 -1.48088 2.31498
rclavicle -1.19659e-013 5.96354e-015
rhumerus -44.0293 2.6034 -82.2491
rradius 65.1434
rwrist -0.711503
rhand -12.5972 -7.34305
rfingers 7.12502
rthumb 13.4815 -36.8867
lclavicle -1.19659e-013 5.96354e-015
lhumerus -27.9557 -16.6248 98.3729
lradius 63.9421
lwrist -3.80752
lhand -11.6276 3.52353
lfingers 7.12502
lthumb 14.4158 33.0029
rfemur -50.3737 -9.45256 21.985
rtibia 52.6976
rfoot 740.678 -7.23131
rtoes 16.2514
lfemur 9.7339 -5.10473 -23.5111
ltibia 18.8773
lfoot 342.425 -6.7592
ltoes -5.16529
342
root -15.4847 17.5402 3.56075 722.329 -87.2616 -718.497
lowerback 0.781742 -3.75765 -3.34015
upperback -2.45794 -5.06317 2.63106
thorax -2.44397 -2.44648 4.70907
lowerneck -18.2934 -2.94751 -4.8201
upperneck 13.8741 -3.85741 6.03531
head 7.48279 -1.53965 2.32181
rclavicle -3.81884e-014 1.82882e-014
rhumerus -43.018 2.57379 -82.854
rradius 65.1853
rwrist -0.69656
rhand -12.4969 -7.47207
rfingers 7.12502
rthumb 13.5781 -37.0093
lclavicle -3.81884e-014 1.82882e-014
lhumerus -28.7258 -16.6244 98.5108
lradius 63.2215
lwrist -3.9648
lhand -11.5269 3.65179
lfingers 7.12502
lthumb 14.5128 33.1242
rfemur -47.8877 -9.23996 22.2202
rtibia 51.2485
rfoot 737.368 -6.42807
rtoes 14.0512
lfemur 9.67403 -4.91525 -22.8838
ltibia 19.8703
lfoot 342.791 -7.4972
ltoes -6.0052
343
root -15.686 17.522 3.5258 727.979 -87.1603 -723.986
lowerback 0.247 -3.63182 -3.17735
upperback -2.53898 -4.88154 2.70828
thorax -2.25262 -2.36389 4.65974
lowerneck -18.167 -3.03938 -4.96213
upperneck 13.9447 -3.95776 6.05154
head 7.49341 -1.59562 2.33938
rclavicle -8.3738e-015 2.14687e-014
rhumerus -41.9674 2.55566 -83.4816
rradius 65.256
rwrist -0.654086
rhand -12.397 -7.62387
rfingers 7.12502
rthumb 13.6744 -37.1546
lclavicle -8.3738e-015 2.14687e-014
lhumerus -29.5355 -16.5685 98.621
lradius 62.4217
lwrist -4.08797
lhand -11.3685 3.77285
lfingers 7.12502
lthumb 14.6654 33.2342
rfemur -45.4198 -8.92265 22.5121
rtibia 49.7104
rfoot 733.346 -5.31304
rtoes 12.7614
lfemur 9.44323 -4.67306 -22.1614
ltibia 21.1435
lfoot 343.321 -8.34884
ltoes -6.99346
344
root -15.8883 17.5053 3.48963 734.038 -87.0721 -729.879
lowerback -0.287224 -3.49153 -2.98182
upperback -2.63159 -4.68297 2.79379
thorax -2.07665 -2.27276 4.60382
lowerneck -18.0534 -3.12809 -5.10646
upperneck 14.0513 -4.05451 6.06411
head 7.51797 -1.65004 2.35665
rclavicle 1.30825e-014 7.55382e-015
rhumerus -40.867 2.55307 -84.1389
rradius 65.3663
rwrist -0.603657
rhand -12.3261 -7.78789
rfingers 7.12502
rthumb 13.7427 -37.3141
lclavicle 1.30825e-014 7.55382e-015
lhumerus -30.3706 -16.4531 98.6886
lradius 61.5275
lwrist -4.17105
lhand -11.176 3.83793
lfingers 7.12502
lthumb 14.8509 33.2857
rfemur -43.0242 -8.49012 22.8614
rtibia 48.0267
rfoot 729.109 -4.16675
rtoes 12.7344
lfemur 8.9942 -4.35887 -21.3409
ltibia 22.757
lfoot 344.072 -9.32203
ltoes -8.14119
345
root -16.0893 17.4909 3.45315 740.705 -87.0017 -736.387
lowerback -0.783786 -3.3293 -2.73535
upperback -2.73618 -4.45855 2.88334
thorax -1.93949 -2.16848 4.52947
lowerneck -17.9649 -3.21252 -5.24962
upperneck 14.1966 -4.14658 6.07337
head 7.55932 -1.70198 2.37322
rclavicle -8.12532e-015 -3.97569e-016
rhumerus -39.7182 2.57832 -84.8316
rradius 65.5414
rwrist -0.570701
rhand -12.2926 -7.98105
rfingers 7.12502
rthumb 13.775 -37.505
lclavicle -8.12532e-015 -3.97569e-016
lhumerus -31.2333 -16.2713 98.7029
lradius 60.5393
lwrist -4.2554
lhand -10.9298 3.84822
lfingers 7.12502
lthumb 15.0881 33.2783
rfemur -40.7464 -7.94008 23.2784
rtibia 46.1901
rfoot 725.173 -3.29452
rtoes 13.9806
lfemur 8.29798 -3.95861 -20.4231
ltibia 24.7532
lfoot 345.116 -10.4204
ltoes -9.53271
346
root -16.2867 17.4795 3.41715 748.245 -86.9409 -743.785
lowerback -1.21351 -3.14067 -2.42167
upperback -2.8421 -4.20287 2.97528
thorax -1.84747 -2.04872 4.42713
lowerneck -17.9136 -3.29496 -5.38007
upperneck 14.3625 -4.23614 6.06831
head 7.61327 -1.75272 2.38306
rclavicle 2.1419e-014 -3.18055e-015
rhumerus -38.4992 2.6436 -85.5635
rradius 65.7934
rwrist -0.568214
rhand -12.3389 -8.14897
rfingers 7.12502
rthumb 13.7304 -37.676
lclavicle 2.1419e-014 -3.18055e-015
lhumerus -32.0889 -16.0209 98.6453
lradius 59.4414
lwrist -4.38244
lhand -10.6588 3.77753
lfingers 7.12502
lthumb 15.3492 33.1878
rfemur -38.6292 -7.2794 23.7826
rtibia 44.2652
rfoot 721.916 -2.84121
rtoes 16.1205
lfemur 7.31577 -3.45819 -19.4026
ltibia 27.1765
lfoot 346.574 -11.6547
ltoes -11.0167
347
root -16.4785 17.4716 3.38195 756.583 -86.8695 -752.005
lowerback -1.53866 -2.92792 -2.03871
upperback -2.95225 -3.91924 3.06526
thorax -1.82366 -1.91491 4.29286
lowerneck -17.9097 -3.37019 -5.51007
upperneck 14.548 -4.31524 6.06595
head 7.68141 -1.79735 2.39468
rclavicle 3.48246e-014 -1.59028e-015
rhumerus -37.2163 2.76698 -86.3406
rradius 66.147
rwrist -0.601812
rhand -12.4662 -8.31724
rfingers 7.12502
rthumb 13.6077 -37.8525
lclavicle 3.48246e-014 -1.59028e-015
lhumerus -32.9415 -15.6889 98.4971
lradius 58.2442
lwrist -4.5997
lhand -10.3753 3.62827
lfingers 7.12502
lthumb 15.6223 33.0175
rfemur -36.7055 -6.52795 24.3763
rtibia 42.3601
rfoot 719.37 -2.84951
rtoes 18.1198
lfemur 6.0322 -2.85664 -18.2904
ltibia 30.0173
lfoot 348.623 -12.9839
ltoes -12.3849
348
root -16.6628 17.4678 3.34768 765.883 -86.7638 -761.231
lowerback -1.74358 -2.68641 -1.57877
upperback -3.04729 -3.60042 3.15811
thorax -1.85623 -1.76426 4.12626
lowerneck -17.9551 -3.44032 -5.64636
upperneck 14.7286 -4.38385 6.07022
head 7.75634 -1.83586 2.41036
rclavicle 2.02263e-014 -2.46493e-014
rhumerus -35.8469 2.94881 -87.1482
rradius 66.6112
rwrist -0.665064
rhand -12.6189 -8.43797
rfingers 7.12502
rthumb 13.4605 -37.983
lclavicle 2.02263e-014 -2.46493e-014
lhumerus -33.747 -15.2775 98.2459
lradius 56.9493
lwrist -4.93804
lhand -10.0859 3.43257
lfingers 7.12502
lthumb 15.9009 32.7998
rfemur -34.9847 -5.67617 25.0742
rtibia 40.6029
rfoot 717.481 -3.18582
rtoes 19.6691
lfemur 4.46381 -2.15101 -17.0843
ltibia 33.2313
lfoot 351.421 -14.2751
ltoes -13.4883
349
root -16.8374 17.4679 3.31439 775.674 -86.5861 -770.985
lowerback -1.81767 -2.42419 -1.0455
upperback -3.12669 -3.25545 3.25598
thorax -1.9478 -1.6016 3.93046
lowerneck -18.0139 -3.50444 -5.74727
upperneck 14.8512 -4.43928 6.02509
head 7.81174 -1.87066 2.40496
rclavicle 1.3741e-014 1.47101e-014
rhumerus -34.39 3.20959 -87.9821
rradius 67.1996
rwrist -0.755129
rhand -12.7934 -8.5321
rfingers 7.12502
rthumb 13.2924 -38.0882
lclavicle 1.3741e-014 1.47101e-014
lhumerus -34.5161 -14.7705 97.8868
lradius 55.5897
lwrist -5.41946
lhand -9.84213 3.19613
lfingers 7.12502
lthumb 16.1357 32.5445
rfemur -33.5001 -4.71754 25.8558
rtibia 39.1255
rfoot 716.128 -3.73374
rtoes 20.7328
lfemur 2.62072 -1.36432 -15.814
ltibia 36.7626
lfoot 354.927 -15.3532
ltoes -14.1845
